# xmcd
#
# Track frame offsets:
#   150
#   17822
#   35464
#   58080
#
# Disc length: 1031 seconds
#
# Revision: 0
# Processed by: cddbd v1.4PL0 Copyright (c) Steve Scherf et al.
# Submitted via: uFREEDB 1.6.0
#
DISCID=2d040504
DTITLE=Captain Morgan - Bring Back
DYEAR=1900
DGENRE=Dance
TTITLE0=Radio version
TTITLE1=Alternativ version
TTITLE2=Extended mix
TTITLE3=Long Rob Silvers partymix
EXTD=
EXTT0=
EXTT1=
EXTT2=
EXTT3=
PLAYORDER=
